%TF.GenerationSoftware,KiCad,Pcbnew,9.0.5*%
%TF.CreationDate,2025-11-23T04:20:17+05:30*%
%TF.ProjectId,led light,6c656420-6c69-4676-9874-2e6b69636164,1*%
%TF.SameCoordinates,Original*%
%TF.FileFunction,Legend,Top*%
%TF.FilePolarity,Positive*%
%FSLAX46Y46*%
G04 Gerber Fmt 4.6, Leading zero omitted, Abs format (unit mm)*
G04 Created by KiCad (PCBNEW 9.0.5) date 2025-11-23 04:20:17*
%MOMM*%
%LPD*%
G01*
G04 APERTURE LIST*
%ADD10C,0.100000*%
%ADD11C,0.150000*%
%ADD12C,0.120000*%
G04 APERTURE END LIST*
D10*
X119803884Y-98991466D02*
X120565789Y-98991466D01*
X120184836Y-99372419D02*
X120184836Y-98610514D01*
X119803884Y-106991466D02*
X120565789Y-106991466D01*
D11*
X136374819Y-103166666D02*
X135898628Y-103499999D01*
X136374819Y-103738094D02*
X135374819Y-103738094D01*
X135374819Y-103738094D02*
X135374819Y-103357142D01*
X135374819Y-103357142D02*
X135422438Y-103261904D01*
X135422438Y-103261904D02*
X135470057Y-103214285D01*
X135470057Y-103214285D02*
X135565295Y-103166666D01*
X135565295Y-103166666D02*
X135708152Y-103166666D01*
X135708152Y-103166666D02*
X135803390Y-103214285D01*
X135803390Y-103214285D02*
X135851009Y-103261904D01*
X135851009Y-103261904D02*
X135898628Y-103357142D01*
X135898628Y-103357142D02*
X135898628Y-103738094D01*
X136374819Y-102214285D02*
X136374819Y-102785713D01*
X136374819Y-102499999D02*
X135374819Y-102499999D01*
X135374819Y-102499999D02*
X135517676Y-102595237D01*
X135517676Y-102595237D02*
X135612914Y-102690475D01*
X135612914Y-102690475D02*
X135660533Y-102785713D01*
X143166667Y-110707200D02*
X143309524Y-110754819D01*
X143309524Y-110754819D02*
X143547619Y-110754819D01*
X143547619Y-110754819D02*
X143642857Y-110707200D01*
X143642857Y-110707200D02*
X143690476Y-110659580D01*
X143690476Y-110659580D02*
X143738095Y-110564342D01*
X143738095Y-110564342D02*
X143738095Y-110469104D01*
X143738095Y-110469104D02*
X143690476Y-110373866D01*
X143690476Y-110373866D02*
X143642857Y-110326247D01*
X143642857Y-110326247D02*
X143547619Y-110278628D01*
X143547619Y-110278628D02*
X143357143Y-110231009D01*
X143357143Y-110231009D02*
X143261905Y-110183390D01*
X143261905Y-110183390D02*
X143214286Y-110135771D01*
X143214286Y-110135771D02*
X143166667Y-110040533D01*
X143166667Y-110040533D02*
X143166667Y-109945295D01*
X143166667Y-109945295D02*
X143214286Y-109850057D01*
X143214286Y-109850057D02*
X143261905Y-109802438D01*
X143261905Y-109802438D02*
X143357143Y-109754819D01*
X143357143Y-109754819D02*
X143595238Y-109754819D01*
X143595238Y-109754819D02*
X143738095Y-109802438D01*
X144071429Y-109754819D02*
X144309524Y-110754819D01*
X144309524Y-110754819D02*
X144500000Y-110040533D01*
X144500000Y-110040533D02*
X144690476Y-110754819D01*
X144690476Y-110754819D02*
X144928572Y-109754819D01*
X145261905Y-109850057D02*
X145309524Y-109802438D01*
X145309524Y-109802438D02*
X145404762Y-109754819D01*
X145404762Y-109754819D02*
X145642857Y-109754819D01*
X145642857Y-109754819D02*
X145738095Y-109802438D01*
X145738095Y-109802438D02*
X145785714Y-109850057D01*
X145785714Y-109850057D02*
X145833333Y-109945295D01*
X145833333Y-109945295D02*
X145833333Y-110040533D01*
X145833333Y-110040533D02*
X145785714Y-110183390D01*
X145785714Y-110183390D02*
X145214286Y-110754819D01*
X145214286Y-110754819D02*
X145833333Y-110754819D01*
X122142400Y-107954819D02*
X122142400Y-106954819D01*
X122142400Y-106954819D02*
X122380495Y-106954819D01*
X122380495Y-106954819D02*
X122523352Y-107002438D01*
X122523352Y-107002438D02*
X122618590Y-107097676D01*
X122618590Y-107097676D02*
X122666209Y-107192914D01*
X122666209Y-107192914D02*
X122713828Y-107383390D01*
X122713828Y-107383390D02*
X122713828Y-107526247D01*
X122713828Y-107526247D02*
X122666209Y-107716723D01*
X122666209Y-107716723D02*
X122618590Y-107811961D01*
X122618590Y-107811961D02*
X122523352Y-107907200D01*
X122523352Y-107907200D02*
X122380495Y-107954819D01*
X122380495Y-107954819D02*
X122142400Y-107954819D01*
X123666209Y-107954819D02*
X123094781Y-107954819D01*
X123380495Y-107954819D02*
X123380495Y-106954819D01*
X123380495Y-106954819D02*
X123285257Y-107097676D01*
X123285257Y-107097676D02*
X123190019Y-107192914D01*
X123190019Y-107192914D02*
X123094781Y-107240533D01*
X116454819Y-103642857D02*
X116454819Y-104119047D01*
X116454819Y-104119047D02*
X115454819Y-104119047D01*
X115931009Y-103309523D02*
X115931009Y-102976190D01*
X116454819Y-102833333D02*
X116454819Y-103309523D01*
X116454819Y-103309523D02*
X115454819Y-103309523D01*
X115454819Y-103309523D02*
X115454819Y-102833333D01*
X116454819Y-102404761D02*
X115454819Y-102404761D01*
X115454819Y-102404761D02*
X115454819Y-102166666D01*
X115454819Y-102166666D02*
X115502438Y-102023809D01*
X115502438Y-102023809D02*
X115597676Y-101928571D01*
X115597676Y-101928571D02*
X115692914Y-101880952D01*
X115692914Y-101880952D02*
X115883390Y-101833333D01*
X115883390Y-101833333D02*
X116026247Y-101833333D01*
X116026247Y-101833333D02*
X116216723Y-101880952D01*
X116216723Y-101880952D02*
X116311961Y-101928571D01*
X116311961Y-101928571D02*
X116407200Y-102023809D01*
X116407200Y-102023809D02*
X116454819Y-102166666D01*
X116454819Y-102166666D02*
X116454819Y-102404761D01*
X168714285Y-94311009D02*
X168857142Y-94358628D01*
X168857142Y-94358628D02*
X168904761Y-94406247D01*
X168904761Y-94406247D02*
X168952380Y-94501485D01*
X168952380Y-94501485D02*
X168952380Y-94644342D01*
X168952380Y-94644342D02*
X168904761Y-94739580D01*
X168904761Y-94739580D02*
X168857142Y-94787200D01*
X168857142Y-94787200D02*
X168761904Y-94834819D01*
X168761904Y-94834819D02*
X168380952Y-94834819D01*
X168380952Y-94834819D02*
X168380952Y-93834819D01*
X168380952Y-93834819D02*
X168714285Y-93834819D01*
X168714285Y-93834819D02*
X168809523Y-93882438D01*
X168809523Y-93882438D02*
X168857142Y-93930057D01*
X168857142Y-93930057D02*
X168904761Y-94025295D01*
X168904761Y-94025295D02*
X168904761Y-94120533D01*
X168904761Y-94120533D02*
X168857142Y-94215771D01*
X168857142Y-94215771D02*
X168809523Y-94263390D01*
X168809523Y-94263390D02*
X168714285Y-94311009D01*
X168714285Y-94311009D02*
X168380952Y-94311009D01*
X169238095Y-93834819D02*
X169809523Y-93834819D01*
X169523809Y-94834819D02*
X169523809Y-93834819D01*
X170666666Y-94834819D02*
X170095238Y-94834819D01*
X170380952Y-94834819D02*
X170380952Y-93834819D01*
X170380952Y-93834819D02*
X170285714Y-93977676D01*
X170285714Y-93977676D02*
X170190476Y-94072914D01*
X170190476Y-94072914D02*
X170095238Y-94120533D01*
D12*
%TO.C,R1*%
X134000000Y-100130000D02*
X134000000Y-101080000D01*
X134000000Y-105870000D02*
X134000000Y-104920000D01*
X134920000Y-101080000D02*
X133080000Y-101080000D01*
X133080000Y-104920000D01*
X134920000Y-104920000D01*
X134920000Y-101080000D01*
%TO.C,SW2*%
X150610000Y-108110000D02*
X150610000Y-105600000D01*
X150610000Y-108110000D02*
X138390000Y-108110000D01*
X150610000Y-103300000D02*
X150610000Y-100700000D01*
X150610000Y-98400000D02*
X150610000Y-95890000D01*
X138390000Y-108110000D02*
X138390000Y-105600000D01*
X138390000Y-103300000D02*
X138390000Y-100700000D01*
X138390000Y-98400000D02*
X138390000Y-95890000D01*
X138390000Y-95890000D02*
X150610000Y-95890000D01*
%TO.C,D1*%
X122500000Y-103005000D02*
G75*
G02*
X117500000Y-103005000I-2500000J0D01*
G01*
X117500000Y-103005000D02*
G75*
G02*
X122500000Y-103005000I2500000J0D01*
G01*
X120000000Y-100015000D02*
G75*
G02*
X121544830Y-105565000I0J-2990000D01*
G01*
X118455170Y-105565000D02*
G75*
G02*
X120000000Y-100015000I1544830J2560000D01*
G01*
X118455000Y-105565000D02*
X121545000Y-105565000D01*
%TO.C,BT1*%
X158808000Y-98390000D02*
G75*
G02*
X161654629Y-93888211I10692020J-3610012D01*
G01*
X161654629Y-110111789D02*
G75*
G02*
X158808000Y-105610000I7845371J8111789D01*
G01*
X177345371Y-93888211D02*
G75*
G02*
X180192000Y-98390000I-7845366J-8111785D01*
G01*
X180192000Y-105610000D02*
G75*
G02*
X177345372Y-110111790I-10692020J3610010D01*
G01*
X155190000Y-98390000D02*
X158808000Y-98390000D01*
X155190000Y-100100000D02*
X155190000Y-98390000D01*
X155190000Y-103900000D02*
X155190000Y-105610000D01*
X158808000Y-105610000D02*
X155190000Y-105610000D01*
X161652700Y-93890000D02*
X165640000Y-93890000D01*
X167840000Y-96090000D02*
X165640000Y-93890000D01*
X167840000Y-96090000D02*
X171160000Y-96090000D01*
X171160000Y-96090000D02*
X173360000Y-93890000D01*
X173360000Y-93890000D02*
X177347300Y-93890000D01*
X177347300Y-110110000D02*
X161652700Y-110110000D01*
X180192000Y-98390000D02*
X183810000Y-98390000D01*
X183810000Y-100100000D02*
X183810000Y-98390000D01*
X183810000Y-103900000D02*
X183810000Y-105610000D01*
X183810000Y-105610000D02*
X180192000Y-105610000D01*
%TD*%
M02*
